<?xml version="1.0" encoding="UTF-8"?>
<svg id="Layer_4" data-name="Layer 4" xmlns="http://www.w3.org/2000/svg" viewBox="0 0 200 250">
  <defs>
    <style>
      .cls-1 {
        fill: none;
        stroke: #1a083f;
        stroke-miterlimit: 10;
      }
    </style>
  </defs>
  <path class="cls-1" d="m100.45,215.14s9.46,1.53,19.95,0l2.3,2.05c-.1-2.23,13.93-13.74,12.28-14.58,0,0-1.79-2.81,7.42,0,9.21,2.81,12.02,6.66,12.02,6.66,0,0-.77,2.54,0,3.57s16.7-2.07,23.57,0c.43.13.88-.12,1.03-.54.92-2.64,3.07-11.04-6.17-12.88-.53-.1-1.08-.08-1.6.05-2,.5-7.17,2.02-9.42,4.67,0,0-16.68-20.05-18.29-20.59,0,0-7.54-4.22-14.71-1.91,0,0-1.35-5.85-11.65-6.58-1.31-.09-2.46-.93-2.88-2.18l-.32-.94c-.46-1.35-.47-2.9.32-4.09.1-.15.17-.32.21-.53.26-1.28,2.05-11.51-1.02-17.65,0,0,1.53-3.32-1.53-6.91l-1.28-22s2.3-1.53-.26-3.32c0,0,2.05-1.28-.26-2.81,0,0,1.53-2.05-.26-3.07,0,0,2.3-1.28.26-3.07l-1.79-35.55s1.53-3.58-.77-7.67l-.77-26.85s26.09-.77,39.9-3.84c13.81-3.07,37.85-6.91,38.11-18.93S131.14-.47,116.82.04c-14.32.51-42.46.26-68.8,4.35C21.68,8.48-.32,20.76,29.35,32.01c1.87.71,3.78,1.35,5.7,1.92,28.47,8.47,60.69,2.38,59.01,5.5l.26,24.3s-2.56,5.63.51,9.72l.77,35.15s-1.79,1.94,0,2.96c0,0-1.79,1.53-.26,2.81,0,0-1.79,1.79.26,3.32,0,0-1.53,1.53,0,2.81v22.76s-2.81,3.07,0,6.65c0,0-2.81,12.02,0,16.11,0,0,1.65,2.19,1.15,3.48-.57,1.46,1.16,4.45-.64,4.96s-9.72-1.02-12.79.77-9.21,10.49-9.46,13.3c0,0-4.6-5.88-8.7-4.86-4.09,1.02-8.95,6.65-6.39,10.49,0,0,1.53,4.86,13.3,6.91l.51,4.35s3.58,0,6.39.26,3.32,2.81,3.32,2.81c0,0,2.3,22.25-.51,22.25s-13.56,7.93-12.28,12.02c1.28,4.09,3.84,6.14,5.12,6.65,1.21.48,6.32.97,11.2.15.53-.09.98-.43,1.22-.9.98-1.88,3.54-7.05,4.97-12.55,1.79-6.91,8.44-20.97,8.44-20.97Z"/>
  <path class="cls-1" d="m184.85,15.64s-13.87,13.68-41.7,16.08c-27.86,2.4-79.04,3.22-82.25,2.91-1.71-.16-36.22-4.22-43.31-9.21"/>
  <line class="cls-1" x1="92.35" y1="38.54" x2="106.85" y2="38.41"/>
  <path class="cls-1" d="m94.31,63.73s.67,3.18,13.3,1.53"/>
  <path class="cls-1" d="m94.83,73.45s8.92,1.36,13.56-.51"/>
  <path class="cls-1" d="m95.59,108.59s8.47,1.2,14.58-.11"/>
  <path class="cls-1" d="m95.59,111.55s6.09.88,14.32,0"/>
  <path class="cls-1" d="m95.59,117.69s8.51.68,14.83-.26"/>
  <path class="cls-1" d="m95.59,120.51s7.39,1.25,15.09.26"/>
  <path class="cls-1" d="m95.34,114.37s9.19.94,14.83.26"/>
  <path class="cls-1" d="m95.59,143.27s8.32,5.94,16.37-.51"/>
  <path class="cls-1" d="m95.59,149.92s8.83,4.48,17.9-.26"/>
  <path class="cls-1" d="m118.17,175.14c1.98-.36,10.86,9.17.9,13.12-7.65,3.04-20.74,1.63-20.74,1.63,0,0-9.47-2.42-13.05-5.83-5.39-5.12,7.51-9.63,10.81-9.6,0,0,8.39,3.14,19.55-.09"/>
  <path class="cls-1" d="m101.7,198.79s15.96,2.51,27.14-5.7"/>
  <path class="cls-1" d="m97.6,195.15s-12.35,13.33-10.72,31.93"/>
  <path class="cls-1" d="m73.85,188.54c.42.3-2.03,8.24-1.79,12.53"/>
  <path class="cls-1" d="m82.55,233.68s-7.3,3.65-7.53,10.95"/>
  <path class="cls-1" d="m85.06,236.42s-7.3,3.88-6.27,11.17"/>
  <path class="cls-1" d="m97.6,202.9s-10.38,18.33-7.98,25.77"/>
  <path class="cls-1" d="m131.35,185.11s12.77-3.42,25.77,19.16"/>
  <path class="cls-1" d="m133.4,190.22s6.16-4.2,20.3,14.04"/>
  <path class="cls-1" d="m103.14,205.18s13.16-2.29,18.4,3.88c0,0,3.88-9.45,8.67-9.9"/>
  <path class="cls-1" d="m164.03,205.88s9.5-4.2,11.27,0"/>
  <path class="cls-1" d="m88.24,195.15s-8.07-.9-9.56-10.22"/>
  <path class="cls-1" d="m82.55,199.16s-4.91-.68-6.45,1.91c0,0,2.24-3.42,0-7.98"/>
  <path class="cls-1" d="m69.91,190.22s-1.86-2.81-6.85-.42"/>
  <path class="cls-1" d="m68.8,193.09s-2.66-2.82-5.74,0"/>
  <line class="cls-1" x1="96.64" y1="38.88" x2="96.64" y2="65.24"/>
  <line class="cls-1" x1="100" y1="38.88" x2="100.48" y2="65.41"/>
  <line class="cls-1" x1="103.57" y1="38.54" x2="104.29" y2="65.24"/>
  <line class="cls-1" x1="97.97" y1="73.92" x2="97.97" y2="108.48"/>
  <line class="cls-1" x1="101.6" y1="73.92" x2="102.1" y2="108.79"/>
  <line class="cls-1" x1="105.31" y1="73.92" x2="106.18" y2="108.48"/>
  <line class="cls-1" x1="98.85" y1="121.15" x2="98.85" y2="145.14"/>
  <line class="cls-1" x1="103.14" y1="121.03" x2="104.04" y2="145.76"/>
  <line class="cls-1" x1="107.61" y1="121.15" x2="108.82" y2="144.26"/>
  <path class="cls-1" d="m96.74,169.51s6.34,1.11,17.56-1.66"/>
  <line class="cls-1" x1="99.33" y1="151.44" x2="99.98" y2="169.31"/>
  <line class="cls-1" x1="104.79" y1="152.25" x2="105.52" y2="169.43"/>
  <line class="cls-1" x1="109.73" y1="151.14" x2="111.03" y2="168.57"/>
  <path class="cls-1" d="m99.65,175.35s-.7,7.25-15.54,6.96"/>
  <path class="cls-1" d="m104.95,175.84s-.84,10.98-5.62,13.97"/>
  <path class="cls-1" d="m111.41,175.35c-.22-.4-.64,10.81,11.82,9.58"/>
</svg>