<?xml version="1.0" encoding="UTF-8"?>
<svg id="Layer_2" data-name="Layer 2" xmlns="http://www.w3.org/2000/svg" viewBox="0 0 564 752">
  <defs>
    <style>
      .cls-1 {
        fill: none;
        stroke: #1a083f;
        stroke-miterlimit: 10;
      }
    </style>
  </defs>
  <path class="cls-1" d="m279.02,639.92s7.9,1.28,16.65,0l1.92,1.71c-.08-1.86,11.63-11.47,10.25-12.17,0,0-1.49-2.35,6.19,0s10.03,5.56,10.03,5.56c0,0-.64,2.12,0,2.98s13.94-1.73,19.67,0c.36.11.74-.1.86-.45.77-2.2,2.56-9.21-5.15-10.75-.44-.09-.9-.06-1.33.05-1.67.42-5.99,1.68-7.86,3.9,0,0-13.92-16.73-15.26-17.19,0,0-6.3-3.52-12.27-1.6,0,0-1.13-4.88-9.72-5.49-1.1-.08-2.05-.78-2.41-1.82l-.27-.79c-.39-1.13-.39-2.42.27-3.42.08-.12.14-.27.18-.45.21-1.07,1.71-9.6-.85-14.73,0,0,1.28-2.77-1.28-5.76l-1.07-18.36s1.92-1.28-.21-2.77c0,0,1.71-1.07-.21-2.35,0,0,1.28-1.71-.21-2.56,0,0,1.92-1.07.21-2.56l-1.49-29.67s1.28-2.99-.64-6.4l-.64-22.41s21.77-.64,33.3-3.2,31.59-5.76,31.8-15.79-44.82-13.45-56.78-13.02-35.43.21-57.42,3.63-40.34,13.66-15.58,23.05c1.56.59,3.15,1.13,4.75,1.6,23.76,7.07,50.65,1.99,49.25,4.59l.21,20.28s-2.13,4.7.43,8.11l.64,29.33s-1.49,1.62,0,2.47c0,0-1.49,1.28-.21,2.35,0,0-1.49,1.49.21,2.77,0,0-1.28,1.28,0,2.35v19s-2.35,2.56,0,5.55c0,0-2.35,10.03,0,13.45,0,0,1.38,1.83.96,2.9-.48,1.22.96,3.72-.53,4.14s-8.11-.85-10.67.64-7.68,8.75-7.9,11.1c0,0-3.84-4.91-7.26-4.06s-7.47,5.55-5.34,8.75c0,0,1.28,4.06,11.1,5.76l.43,3.63s2.99,0,5.34.21,2.77,2.35,2.77,2.35c0,0,1.92,18.57-.43,18.57s-11.31,6.62-10.25,10.03,3.2,5.12,4.27,5.55c1.01.4,5.27.81,9.35.13.44-.07.81-.35,1.02-.75.82-1.57,2.96-5.89,4.15-10.48,1.49-5.76,7.04-17.5,7.04-17.5Z"/>
  <path class="cls-1" d="m349.46,473.43s-11.57,11.42-34.8,13.42c-23.25,2-65.96,2.69-68.64,2.43-1.43-.14-30.23-3.52-36.14-7.68"/>
  <line class="cls-1" x1="272.26" y1="492.54" x2="284.36" y2="492.43"/>
  <path class="cls-1" d="m273.9,513.56s.56,2.66,11.1,1.28"/>
  <path class="cls-1" d="m274.33,521.67s7.44,1.13,11.31-.43"/>
  <path class="cls-1" d="m274.97,551s7.07,1,12.17-.09"/>
  <path class="cls-1" d="m274.97,553.47s5.08.73,11.95,0"/>
  <path class="cls-1" d="m274.97,558.59s7.1.57,12.38-.21"/>
  <path class="cls-1" d="m274.97,560.94s6.17,1.05,12.59.21"/>
  <path class="cls-1" d="m274.75,555.82s7.67.78,12.38.21"/>
  <path class="cls-1" d="m274.97,579.94s6.94,4.95,13.66-.43"/>
  <path class="cls-1" d="m274.97,585.49s7.37,3.74,14.94-.21"/>
  <path class="cls-1" d="m293.81,606.54c1.66-.3,9.06,7.65.75,10.95-6.39,2.54-17.31,1.36-17.31,1.36,0,0-7.9-2.02-10.89-4.86-4.5-4.27,6.27-8.03,9.02-8.01,0,0,7,2.62,16.31-.07"/>
  <path class="cls-1" d="m280.07,626.28s13.32,2.09,22.65-4.76"/>
  <path class="cls-1" d="m276.64,623.23s-10.3,11.13-8.94,26.64"/>
  <path class="cls-1" d="m256.83,617.72c.35.25-1.69,6.87-1.49,10.46"/>
  <path class="cls-1" d="m264.08,655.39s-6.09,3.04-6.28,9.13"/>
  <path class="cls-1" d="m266.18,657.68s-6.09,3.24-5.23,9.33"/>
  <path class="cls-1" d="m276.64,629.7s-8.66,15.29-6.66,21.5"/>
  <path class="cls-1" d="m304.81,614.86s10.66-2.85,21.5,15.99"/>
  <path class="cls-1" d="m306.52,619.13s5.14-3.5,16.94,11.72"/>
  <path class="cls-1" d="m281.26,631.61s10.98-1.91,15.36,3.24c0,0,3.24-7.89,7.23-8.26"/>
  <path class="cls-1" d="m332.08,632.19s7.93-3.5,9.4,0"/>
  <path class="cls-1" d="m268.84,623.23s-6.74-.75-7.98-8.53"/>
  <path class="cls-1" d="m264.08,626.58s-4.1-.57-5.39,1.6c0,0,1.87-2.85,0-6.66"/>
  <path class="cls-1" d="m253.53,619.13s-1.56-2.35-5.72-.35"/>
  <path class="cls-1" d="m252.61,621.52s-2.22-2.35-4.79,0"/>
  <line class="cls-1" x1="275.84" y1="492.82" x2="275.84" y2="514.82"/>
  <line class="cls-1" x1="278.65" y1="492.82" x2="279.05" y2="514.97"/>
  <line class="cls-1" x1="281.63" y1="492.54" x2="282.23" y2="514.82"/>
  <line class="cls-1" x1="276.95" y1="522.07" x2="276.95" y2="550.91"/>
  <line class="cls-1" x1="279.98" y1="522.07" x2="280.4" y2="551.16"/>
  <line class="cls-1" x1="283.08" y1="522.07" x2="283.8" y2="550.91"/>
  <line class="cls-1" x1="277.69" y1="561.48" x2="277.69" y2="581.5"/>
  <line class="cls-1" x1="281.26" y1="561.38" x2="282.02" y2="582.02"/>
  <line class="cls-1" x1="285" y1="561.48" x2="286.01" y2="580.77"/>
  <path class="cls-1" d="m275.93,601.84s5.29.92,14.66-1.39"/>
  <line class="cls-1" x1="278.09" y1="586.76" x2="278.63" y2="601.67"/>
  <line class="cls-1" x1="282.64" y1="587.43" x2="283.25" y2="601.77"/>
  <line class="cls-1" x1="286.77" y1="586.51" x2="287.85" y2="601.06"/>
  <path class="cls-1" d="m278.36,606.71s-.58,6.05-12.97,5.8"/>
  <path class="cls-1" d="m282.78,607.12s-.7,9.16-4.69,11.66"/>
  <path class="cls-1" d="m288.17,606.71c-.18-.33-.54,9.02,9.86,7.99"/>
</svg>