<?xml version="1.0" encoding="UTF-8"?>
<svg id="Layer_3" data-name="Layer 3" xmlns="http://www.w3.org/2000/svg" viewBox="0 0 200 200">
  <defs>
    <style>
      .cls-1 {
        fill: #fff;
        stroke-width: 0px;
      }
    </style>
  </defs>
  <circle class="cls-1" cx="100" cy="100" r="30.92"/>
  <path class="cls-1" d="m163.11,2.23H36.89C16.52,2.23,0,18.75,0,39.12v121.76c0,20.37,16.52,36.89,36.89,36.89h126.22c20.37,0,36.89-16.52,36.89-36.89V39.12c0-20.37-16.52-36.89-36.89-36.89Zm-63.11,158.41c-33.49,0-60.64-27.15-60.64-60.64s27.15-60.64,60.64-60.64,60.64,27.15,60.64,60.64-27.15,60.64-60.64,60.64Zm67.73-118.91c-5.57,0-10.09-4.52-10.09-10.09s4.52-10.09,10.09-10.09,10.09,4.52,10.09,10.09-4.52,10.09-10.09,10.09Z"/>
</svg>