<?xml version="1.0" encoding="UTF-8"?>
<svg xmlns="http://www.w3.org/2000/svg" viewBox="0 0 564 764">
  <defs>
    <style>
      .cls-1 {
        fill: none;
        stroke: #1a083f;
        stroke-miterlimit: 10;
      }
    </style>
  </defs>
  <g id="Layer_2" data-name="Layer 2">
    <path class="cls-1" d="m258.93,686.81s2.67,7.71-10.67,10.37-16.89,6.22-16.89,6.22c0,0-5.04,8-4.74,15.41s35.75,8.3,39.08,8.4c.17,0,.33,0,.5,0,2.57-.11,24.12-1.15,31.3-5.74.92-.59,1.49-1.58,1.52-2.68.06-1.98-.02-5.72-1.01-10.09-.17-.74-.51-1.42-.97-2.02-1.65-2.16-6.04-7.16-12.04-8.32-7.71-1.48-19.56-2.96-18.37-11.56,0,0,3.56-4.15.89-7.41l-.89-7.41s4.01-3.91-.21-7.51l.31-90.27s1.38-2.19-.61-3.77l-.21-2.73s4.3-2.2.1-5.35l.61-83.99s2.36-2.05-.18-3.68l-.18-3.26s3.62-2.71-.18-6.15l.19-83.29h1.73l-1.18-12.29h2.06l-1.03-17.53h-10.35l-1.97,17.98h2.22l-1.23,11.84h2.22l.25,83s-3.33,3.23.05,6.6l.13,3.51s-1.8,1.63-.13,3.64l.54,83.29s-3.64,2.29,0,5.8l.13,2.83s-2.29,1.75,0,3.64l-.27,89.77s-3.78,3.1-.13,7.83l-.4,7.42s-3.06,3.41.02,7.44Z"/>
    <path class="cls-1" d="m257.76,370.16s3.81,1.12,9.07-.45"/>
    <path class="cls-1" d="m258.75,382s2.75.95,7.53,0"/>
    <path class="cls-1" d="m258.99,465s1.78.66,7.09.29"/>
    <path class="cls-1" d="m259.04,471.61s2.68.7,7.23-.17"/>
    <path class="cls-1" d="m259.18,475.12s4.37.33,7.27-.42"/>
    <path class="cls-1" d="m259.04,478.76s2.96.39,7.59-.39"/>
    <path class="cls-1" d="m259.58,562.05s1.49,1.08,6.44.31"/>
    <path class="cls-1" d="m259.58,567.86s2.53.72,6.33-.14"/>
    <path class="cls-1" d="m259.72,570.69s3.4.56,6.41-.25"/>
    <path class="cls-1" d="m259.72,574.34s3.2,1.01,7.02-.12"/>
    <path class="cls-1" d="m259.45,664.11s3.25.82,6.98.37"/>
    <path class="cls-1" d="m259.31,671.94s3.58,1.2,7.32.05"/>
    <path class="cls-1" d="m258.91,679.37s4.31,1.05,8.62.03"/>
    <path class="cls-1" d="m258.93,686.81s3.26.98,7.71,0"/>
    <path class="cls-1" d="m233.81,701.8s.68,5.25,7.32,8.13,37.19,1.17,40.15.66c4.62-.8,10.72-6.48,11.81-8.51"/>
  </g>
  <g id="Layer_3" data-name="Layer 3">
    <ellipse class="cls-1" cx="264.15" cy="356.32" rx="58.37" ry="4.14"/>
    <path class="cls-1" d="m322.51,356.32c1.56-25.55-16.67-66.05-20.5-74.24-.43-.93-1.29-1.58-2.3-1.75-35.08-5.88-65.65-1.38-73.25-.06-1.12.2-2.05.97-2.44,2.04-3.69,10.07-22.17,61.64-18.24,74.01"/>
    <path class="cls-1" d="m229.88,279.72s-21.67,51.91-17.95,74.75"/>
    <path class="cls-1" d="m235.3,278.78s-19.81,57.93-16.44,74.77"/>
    <path class="cls-1" d="m247.59,277.87s-13.1,67.88-9.97,74.75"/>
    <path class="cls-1" d="m241.2,278.78s-15.95,60.81-13.35,74.29"/>
    <path class="cls-1" d="m253.98,277.55s-9.59,46.59-6.39,74.62"/>
    <path class="cls-1" d="m260.95,277.55s-6.77,61.81-3.44,74.62"/>
    <path class="cls-1" d="m266.47,277.87s2.49,55.59,1.39,74.3"/>
    <path class="cls-1" d="m272.22,277.55s7.92,55.02,5.68,74.37"/>
    <path class="cls-1" d="m278.47,277.87s11.76,50.28,8.99,74.64"/>
    <path class="cls-1" d="m284.73,278.38s15.61,48.45,12.24,74.51"/>
    <path class="cls-1" d="m292.68,279.27s16.53,49.48,16.22,74.75"/>
    <path class="cls-1" d="m297.45,279.96s22.12,58.27,18.93,74.51"/>
    <line class="cls-1" x1="274.56" y1="352.24" x2="274.56" y2="368.54"/>
    <circle class="cls-1" cx="274.56" cy="370.11" r="1.98"/>
    <circle class="cls-1" cx="274.56" cy="374.72" r="1.98"/>
    <circle class="cls-1" cx="274.56" cy="379.41" r="1.98"/>
    <circle class="cls-1" cx="274.56" cy="384.1" r="1.98"/>
  </g>
</svg>