<?xml version="1.0" encoding="UTF-8"?>
<svg id="Layer_4" data-name="Layer 4" xmlns="http://www.w3.org/2000/svg" viewBox="0 0 200 250">
  <defs>
    <style>
      .cls-1 {
        fill: none;
        stroke: #1a083f;
        stroke-miterlimit: 10;
      }
    </style>
  </defs>
  <path class="cls-1" d="m95.66,65.19s2.68.79,6.39-.32"/>
  <path class="cls-1" d="m96.36,73.51s1.94.67,5.3,0"/>
  <path class="cls-1" d="m96.74,133.95s1.05.76,4.53.22"/>
  <path class="cls-1" d="m96.74,138.03s1.78.5,4.46-.1"/>
  <path class="cls-1" d="m96.84,140.02s2.39.39,4.51-.17"/>
  <path class="cls-1" d="m96.84,142.58s2.26.71,4.94-.09"/>
  <path class="cls-1" d="m96.65,205.66s2.29.58,4.92.26"/>
  <path class="cls-1" d="m96.55,211.16s2.52.84,5.16.03"/>
  <path class="cls-1" d="m96.27,216.38s3.03.74,6.07.02"/>
  <path class="cls-1" d="m96.28,221.61s2.3.69,5.43,0"/>
  <path class="cls-1" d="m78.59,232.14s.48,3.69,5.15,5.72c4.68,2.03,26.19.82,28.27.46,3.26-.56,7.55-4.56,8.32-5.98"/>
  <ellipse class="cls-1" cx="100.16" cy="55.47" rx="41.1" ry="2.91"/>
  <path class="cls-1" d="m141.26,55.47c1.1-17.95-11.74-46.41-14.44-52.16-.31-.65-.91-1.11-1.62-1.23-24.7-4.13-46.23-.97-51.58-.04-.79.14-1.44.68-1.72,1.44-2.6,7.08-15.61,43.31-12.85,52"/>
  <path class="cls-1" d="m76.03,1.65s-15.26,36.47-12.64,52.52"/>
  <path class="cls-1" d="m79.85.99s-13.95,40.7-11.58,52.53"/>
  <path class="cls-1" d="m88.5.35s-9.22,47.69-7.02,52.52"/>
  <path class="cls-1" d="m84,.99s-11.23,42.72-9.4,52.2"/>
  <path class="cls-1" d="m93,.12s-6.75,32.74-4.5,52.43"/>
  <path class="cls-1" d="m97.91.12s-4.76,43.43-2.42,52.43"/>
  <path class="cls-1" d="m101.79.35s1.76,39.06.98,52.21"/>
  <path class="cls-1" d="m105.84.12s5.58,38.66,4,52.26"/>
  <path class="cls-1" d="m110.24.35s8.28,35.33,6.33,52.45"/>
  <path class="cls-1" d="m114.65.71s10.99,34.04,8.62,52.36"/>
  <path class="cls-1" d="m120.25,1.34s11.64,34.76,11.42,52.52"/>
  <path class="cls-1" d="m123.61,1.82s15.58,40.95,13.33,52.35"/>
  <line class="cls-1" x1="107.49" y1="52.6" x2="107.49" y2="64.05"/>
  <circle class="cls-1" cx="107.49" cy="65.16" r="1.39"/>
  <circle class="cls-1" cx="107.49" cy="68.4" r="1.39"/>
  <circle class="cls-1" cx="107.49" cy="71.69" r="1.39"/>
  <circle class="cls-1" cx="107.49" cy="74.99" r="1.39"/>
  <path class="cls-1" d="m96.74,133.95s-2.57,1.61,0,4.08l.1,1.99s-1.62,1.23,0,2.56l-.19,63.08s-2.66,2.18-.1,5.5l-.29,5.22s-2.15,2.39.02,5.23c0,0,1.88,5.41-7.51,7.29s-11.9,4.37-11.9,4.37c0,0-3.55,5.62-3.34,10.83.2,4.96,25.18,5.83,27.52,5.9.12,0,.23,0,.35,0,1.81-.08,16.99-.81,22.04-4.03.65-.41,1.05-1.11,1.07-1.88.04-1.39-.01-4.02-.71-7.09-.12-.52-.36-1-.68-1.42-1.16-1.52-4.25-5.03-8.48-5.84-5.43-1.04-13.77-2.08-12.94-8.12,0,0,2.5-2.92.63-5.21l-.63-5.21s2.82-2.75-.14-5.27l.22-63.42s.97-1.54-.43-2.65l-.15-1.92s3.03-1.55.07-3.76l.39-60.66h1.22l-.83-8.64h1.45l-.73-12.32h-7.29l-1.39,12.64h1.56l-.87,8.32h1.56l.38,60.44Z"/>
</svg>