<?xml version="1.0" encoding="UTF-8"?>
<svg id="Layer_4" data-name="Layer 4" xmlns="http://www.w3.org/2000/svg" viewBox="0 0 200 250">
  <defs>
    <style>
      .cls-1 {
        fill: none;
        stroke: #1a083f;
        stroke-miterlimit: 10;
      }
    </style>
  </defs>
  <ellipse class="cls-1" cx="89.15" cy="116.09" rx="49.39" ry="13.16"/>
  <path class="cls-1" d="m74.7,103.5c-7.02-30.37-7.1-64.03-6.74-76.66.1-3.71,1.39-7.27,3.65-10.21,4.6-6,13.53-14.66,23.44-15.67C105.67-.12,116.65-.05,121.85.06c2.41.05,4.8.37,7.13.95,19.05,4.76,22.21,16.3,22.21,16.3,0,0,7.2,15.67-.64,39.4s-4.02,17.58-8.26,36.43c-3.81,16.96,1.98,56.21,3.18,63.91.12.77.02,1.55.16,2.32,1.67,8.82,13.54,44.04,15.46,49.71.2.6.08,1.25-.33,1.73-.16.18-.32.33-.48.45-.59.44-1.4.28-1.78-.35-4.23-7.02-19.54-48.1-20.98-55.42-1.37-6.95-1.15-26.23-1.15-26.23-7.55,5.01-27.89,6.61-26.76,7.19,1.02.53-.02,51.5-.22,60.96-.02.76.04,1.5.12,2.26.61,5.93-1.62,41.36-2.1,48.74-.05.79-.68,1.42-1.47,1.49-2.07.18-3.64.12-4.63.02-.7-.06-1.21-.67-1.16-1.38.36-5.03,1.75-24.21,1.96-26.6.24-2.75.12-84.83-.48-85.67,0,0-23.39-.09-26.05-.36-1.18-.12-22.99-3.88-27.75-6.54-.1-.05-.21,0-.21.12-.07,4.39-1.11,67.82-2.15,70.82,0,0-1.24,11.04-2.27,14.69-.18.64-.66,1.14-1.29,1.33-.56.17-1.31.33-2.11.28-.68-.05-1.13-.73-.95-1.39.79-2.89,2.8-10.75,2.51-14.87-.03-.42-.06-.84-.05-1.26.22-6.98,2.22-69.37,1.65-71.18,0,0-5.77-7.7-2.56-13.93"/>
  <path class="cls-1" d="m134.72,111s.51-21.75,2.38-27.52c1.87-5.78,7.14-26.33,9.34-30.58,2.21-4.25,3.55-19.04,3.4-24.81-.17-6.76-9.72-19.35-14.96-20.84-4.38-1.24-3.97-1.71-18.34-2.6-14.1-.87-23.11.85-23.11.85,0,0-8.82,3.77-15.21,10.15-3.85,3.85-5.9,9.15-5.95,14.59-.13,14.4.08,53.95,8.01,72.69"/>
  <path class="cls-1" d="m97.98,102.92v-31.24s-2.79-25.11-5.29-28.93-7.41-22.36-3.64-31.14c.18-.42.44-.78.76-1.1,1.29-1.29,5-4.51,10.04-4.86,5.46-.38,9.99,3.88,11.11,4.97.17.17.34.46.43.58,1.13,1.41,3.57,7.46,2.15,11.59s-4.79,7.96-5.46,8.68c-.08.08-.18.14-.29.16-.64.12-2.93.51-4,.26-.17-.04-.2-.26-.06-.36.98-.65,3.88-2.67,4.67-4.19,0,0,3.39-3.54,2.83-6.02-.56-2.5-1.83-8.83-5.65-11-6.02-3.41-7.06-1.73-10.67.23-3.42,1.86-4.97,10.6-3.69,13.26,1.23,2.56,1.32,11.31,3.96,16.59,2.64,5.29,5.22,18.65,5.62,21s2.46,17.47,1.87,22.61c-.59,5.14.15,18.91.15,18.91"/>
  <path class="cls-1" d="m125.06,107.05s-2.18-25.83,2.26-36.09c.5-1.15.96-2.31,1.27-3.52,1.53-5.94,6.36-23.56,12.47-35.38.06-.12.11-.25.15-.38.63-2.21,5.57-21.52-11.83-24.9-.6-.12-1.23-.09-1.82.08-5.16,1.55-9.44,3.17-12.1,9.46-3.15,7.43,1.24,15.02,1.96,16.16.06.1.14.17.24.22.56.28,2.59,1.25,4.2,1.49.21.03.33-.23.16-.36-1.06-.8-2.45-2.6-3.19-3.7,0,0-3.85-4.12-1.91-11.31,1.43-5.29,6-7.25,8.32-7.91.84-.24,1.71-.34,2.58-.28,2.97.21,10.39,1.55,10.39,9.66,0,8.67-2.26,15.72-2.91,17.58-.1.29-.22.57-.37.84-1.25,2.33-8.02,15.23-8.83,22.62-.15,1.37-.49,2.7-.91,4-1.39,4.27-4.05,13.13-4.16,18.97-.15,7.93-1.24,21.45-1.24,21.45"/>
  <path class="cls-1" d="m110.52,151.1c-1.47,1.13,18.05-13.42,18.91-18.87"/>
  <path class="cls-1" d="m110.03,157.17s19.62-13.79,26.35-25.42"/>
  <path class="cls-1" d="m50.01,130.29c-8.71-3.64-7.69-3.45-7.75-3.45"/>
  <path class="cls-1" d="m101.63,136.27c.46-.08,10.48,0,9.42-.28"/>
  <path class="cls-1" d="m138.55,116.09s.97,7.05-2.17,13.16"/>
  <path class="cls-1" d="m71.32,135.19s1.01,18.15.51,19.31"/>
  <path class="cls-1" d="m80.25,136.27s-1.12,19.51-.34,20.09"/>
  <path class="cls-1" d="m101.63,155.06s-13.46,2.31-23.12,1.15-18.72-6.58-19.89-7.53c-1.08-.87-10.36-5.68-3.63-16.94"/>
  <path class="cls-1" d="m102.08,160.08s-14.69,4.06-28.02,1.55c-13.33-2.51-27.15-16.15-26.71-17.49"/>
  <path class="cls-1" d="m50.01,130.29s-2.5,2.76-2.54,7.62"/>
  <path class="cls-1" d="m71.97,161.15s1.25,22.6.49,34.77c0,0-.02,1.01-.09,1.81-.05.49.23.95.69,1.11.9.32,2.5.77,4.64.87.69.03,1.28-.5,1.3-1.2.16-5.91.8-31.5.35-36.06"/>
</svg>