<?xml version="1.0" encoding="UTF-8"?>
<svg id="Layer_2" data-name="Layer 2" xmlns="http://www.w3.org/2000/svg" viewBox="0 0 564 752">
  <defs>
    <style>
      .cls-1 {
        fill: none;
        stroke: #1a083f;
        stroke-miterlimit: 10;
      }
    </style>
  </defs>
  <ellipse class="cls-1" cx="347.99" cy="521.08" rx="44.13" ry="11.76"/>
  <path class="cls-1" d="m335.08,509.83c-6.27-27.13-6.34-57.21-6.03-68.49.09-3.31,1.24-6.49,3.26-9.12,4.11-5.36,12.09-13.1,20.94-14,9.5-.96,19.31-.91,23.95-.81,2.15.05,4.29.33,6.37.85,17.02,4.25,19.85,14.56,19.85,14.56,0,0,6.43,14-.57,35.2s-3.6,15.71-7.38,32.55c-3.41,15.15,1.77,50.23,2.84,57.11.11.69.02,1.39.15,2.07,1.49,7.88,12.1,39.35,13.81,44.41.18.53.07,1.12-.3,1.55-.14.17-.29.3-.43.4-.53.39-1.25.25-1.59-.32-3.78-6.28-17.46-42.98-18.75-49.52s-1.03-23.44-1.03-23.44c-6.75,4.47-24.92,5.91-23.91,6.43.91.47-.02,46.02-.2,54.47-.01.68.04,1.34.11,2.02.54,5.3-1.45,36.96-1.87,43.55-.05.71-.61,1.27-1.32,1.33-1.85.16-3.25.1-4.14.02-.63-.06-1.08-.6-1.04-1.23.32-4.5,1.57-21.64,1.75-23.77.21-2.46.11-75.8-.43-76.55,0,0-20.9-.08-23.27-.32-1.05-.11-20.54-3.47-24.8-5.84-.09-.05-.19,0-.19.11-.06,3.92-.99,60.6-1.92,63.28,0,0-1.11,9.86-2.03,13.12-.16.57-.59,1.01-1.15,1.19-.5.15-1.17.3-1.89.25-.61-.04-1.01-.66-.85-1.24.71-2.59,2.5-9.61,2.24-13.29-.03-.38-.05-.75-.04-1.13.2-6.24,1.98-61.98,1.48-63.6,0,0-5.15-6.88-2.29-12.44"/>
  <path class="cls-1" d="m388.7,516.53s.45-19.43,2.12-24.59,6.38-23.53,8.35-27.32,3.17-17.01,3.04-22.16c-.15-6.04-8.68-17.29-13.37-18.62-3.91-1.11-3.54-1.53-16.38-2.33-12.6-.78-20.64.76-20.64.76,0,0-7.88,3.37-13.59,9.07-3.44,3.44-5.27,8.17-5.31,13.04-.11,12.87.07,48.2,7.16,64.95"/>
  <path class="cls-1" d="m355.88,509.32v-27.91s-2.49-22.43-4.72-25.84-6.62-19.98-3.26-27.82c.16-.37.4-.7.68-.98,1.15-1.15,4.47-4.03,8.97-4.34,4.88-.34,8.93,3.47,9.93,4.44.16.15.3.41.38.52,1.01,1.26,3.19,6.67,1.92,10.35s-4.28,7.11-4.88,7.76c-.07.07-.16.12-.26.14-.57.11-2.62.45-3.58.23-.15-.03-.18-.24-.05-.32.87-.58,3.47-2.38,4.17-3.75,0,0,3.03-3.16,2.53-5.38-.5-2.24-1.64-7.89-5.05-9.82-5.38-3.05-6.31-1.55-9.54.21-3.05,1.66-4.44,9.47-3.29,11.85,1.1,2.28,1.18,10.1,3.54,14.82s4.66,16.66,5.02,18.76,2.19,15.61,1.67,20.2.13,16.89.13,16.89"/>
  <path class="cls-1" d="m380.08,513s-1.95-23.07,2.02-32.24c.44-1.03.86-2.06,1.13-3.15,1.37-5.3,5.68-21.05,11.14-31.61.06-.11.1-.22.13-.34.56-1.98,4.98-19.22-10.57-22.25-.54-.1-1.1-.08-1.63.08-4.61,1.39-8.44,2.83-10.82,8.45-2.81,6.64,1.1,13.42,1.75,14.43.05.09.12.15.22.19.5.25,2.31,1.12,3.75,1.33.19.03.29-.21.14-.32-.95-.71-2.18-2.32-2.85-3.3,0,0-3.44-3.68-1.71-10.1,1.28-4.73,5.36-6.47,7.43-7.07.75-.22,1.53-.3,2.31-.25,2.65.19,9.29,1.39,9.29,8.63,0,7.75-2.02,14.05-2.6,15.71-.09.26-.2.51-.33.75-1.11,2.08-7.16,13.61-7.89,20.21-.13,1.22-.44,2.41-.82,3.58-1.24,3.81-3.62,11.73-3.71,16.95-.13,7.08-1.11,19.17-1.11,19.17"/>
  <path class="cls-1" d="m367.08,552.36c-1.31,1.01,16.13-11.99,16.89-16.86"/>
  <path class="cls-1" d="m366.64,557.78s17.53-12.32,23.54-22.71"/>
  <path class="cls-1" d="m313.02,533.77c-7.79-3.25-6.87-3.08-6.93-3.08"/>
  <path class="cls-1" d="m359.14,539.11c.41-.07,9.36,0,8.42-.25"/>
  <path class="cls-1" d="m392.12,521.08s.87,6.3-1.94,11.76"/>
  <path class="cls-1" d="m332.06,538.15s.9,16.22.46,17.25"/>
  <path class="cls-1" d="m340.04,539.11s-1,17.43-.31,17.95"/>
  <path class="cls-1" d="m359.14,555.9s-12.03,2.06-20.65,1.03-16.72-5.88-17.77-6.73c-.97-.78-9.25-5.08-3.25-15.14"/>
  <path class="cls-1" d="m359.55,560.39s-13.12,3.63-25.03,1.38-24.26-14.43-23.87-15.62"/>
  <path class="cls-1" d="m313.02,533.77s-2.24,2.47-2.27,6.81"/>
  <path class="cls-1" d="m332.64,561.34s1.12,20.19.44,31.07c0,0-.02.9-.08,1.61-.04.44.21.85.62.99.8.28,2.24.69,4.14.78.62.03,1.15-.45,1.16-1.07.14-5.28.71-28.15.31-32.22"/>
</svg>