<?xml version="1.0" encoding="UTF-8"?>
<svg id="Layer_4" data-name="Layer 4" xmlns="http://www.w3.org/2000/svg" viewBox="0 0 200 250">
  <defs>
    <style>
      .cls-1 {
        fill: #1a083f;
      }

      .cls-1, .cls-2, .cls-3, .cls-4 {
        stroke-miterlimit: 10;
      }

      .cls-1, .cls-2, .cls-4 {
        stroke: #1a083f;
      }

      .cls-2, .cls-3, .cls-4 {
        fill: none;
      }

      .cls-3 {
        stroke: #fff;
      }

      .cls-4 {
        opacity: .1;
      }
    </style>
  </defs>
  <path class="cls-2" d="m34.02,65.95c9.24-6.94,18.07-10.9,24.19-13.13,10.91-3.98,19.62-4.84,27.74-5.58,8.04-.74,22.41-1.94,40.64,1.97,7.13,1.53,21.01,4.63,36.45,14.12,7.84,4.82,16.51,10.27,24.19,21.01,3.58,5.01,8.76,13.71,11.29,25.61,4.34,20.47-2.02,36.97-4.19,42.03-7.44,17.31-19.75,26.27-27.42,31.85-16.48,11.99-32.42,15.33-42.9,17.4-6.54,1.3-23.46,4.1-44.83.66-11.18-1.8-28.64-4.81-46.12-17.4-9.4-6.77-15.04-13.6-16.77-15.76-4.53-5.66-12.25-15.55-15.16-30.54-2.99-15.41.75-27.75,2.26-32.51,6.93-21.9,22.74-33.79,30.64-39.73Z"/>
  <path class="cls-2" d="m35.82,68.41c8.98-6.67,17.57-10.47,23.52-12.62,10.61-3.83,19.08-4.65,26.97-5.36,7.82-.71,21.79-1.86,39.52,1.89,6.94,1.47,20.43,4.45,35.44,13.57,7.62,4.63,16.06,9.87,23.52,20.19,3.48,4.81,8.52,13.17,10.98,24.61,4.23,19.67-1.96,35.53-4.08,40.39-7.23,16.64-19.21,25.25-26.66,30.61-16.03,11.52-31.53,14.73-41.71,16.72-6.36,1.24-22.81,3.94-43.6.63-10.87-1.73-27.85-4.62-44.85-16.72-9.14-6.51-14.63-13.07-16.31-15.15-4.4-5.44-11.91-14.95-14.74-29.35-2.91-14.8.73-26.67,2.2-31.24,6.73-21.05,22.11-32.47,29.8-38.18Z"/>
  <path class="cls-2" d="m58.22,119.36c.79-1.37,3.5-5.69,10.97-9.68,1.13-.6,5.58-2.92,15.16-4.84,6.01-1.2,13.11-2.58,22.58-1.94,4.46.3,11.56,1.2,19.67,4.19,6.22,2.3,11.53,4.34,15.16,9.68,1.11,1.63,3.47,5.09,2.9,9.35-.56,4.26-3.73,6.92-7.1,9.68-2.09,1.7-6.79,5.17-15.48,7.74-7.68,2.27-13.79,2.45-19.35,2.58-6.19.14-14.03.26-23.54-2.58-5.68-1.7-9.77-3.79-12.9-5.81-4.68-3.01-10-6.42-10.32-11.61-.16-2.59.98-4.57,2.26-6.77Z"/>
  <polyline class="cls-2" points="72.29 108.26 38.86 71.3 38.86 66.25"/>
  <line class="cls-2" x1="32.88" y1="70.62" x2="38.86" y2="71.3"/>
  <polyline class="cls-2" points="126.44 142 162.55 176.75 161.12 184.24"/>
  <polyline class="cls-2" points="126.6 107 162.71 73.13 169.21 70.86"/>
  <line class="cls-2" x1="162.71" y1="73.13" x2="164.09" y2="67.51"/>
  <polyline class="cls-2" points="74.71 142.01 42.09 179.99 34.88 182.32"/>
  <line class="cls-2" x1="42.26" y1="187.03" x2="42.09" y2="179.99"/>
  <path class="cls-2" d="m95.96,89.61c-.65-.56-2.92-2.35-6.31-2.43-.82-.02-3.34.02-5.83,1.7-1.35.91-2.2,1.98-2.67,2.67-7.45-5.99-18.55-14.36-26-20.35"/>
  <path class="cls-2" d="m68.27,81.84c1.42-1.7,2.09-3.34,2.43-4.37.52-1.61.98-3.04.49-4.61-.59-1.88-2.43-3.64-2.43-3.64h0c.22-.54.6-1.33,1.21-2.19,2.52-3.52,6.6-4.76,12.14-5.83,5.22-1.01,10.13-1.56,16.76-1.94,7.21-.41,10.9-.61,15.06,0,5.83.85,9.72,2.48,11.66,3.4,3.95,1.86,6.39,3.01,8.26,5.83,2.1,3.17,2.99,7.69,1.46,11.66-.94,2.43-2.47,3.84-4.37,5.59-3.41,3.14-7.01,4.86-9.71,5.83"/>
  <polyline class="cls-1" points="69.19 109.68 68.79 104.38 74.71 107"/>
  <polyline class="cls-1" points="84.35 104.84 84.35 99.2 88.52 104.04"/>
  <polyline class="cls-1" points="97.39 102.74 100.35 98.03 102.77 102.74"/>
  <polyline class="cls-1" points="111.64 103.38 116.34 99.2 116.34 104.18"/>
  <polyline class="cls-1" points="123.65 106.08 131.14 102.74 129.66 108.26"/>
  <polyline class="cls-1" points="136.79 111.83 143.26 111.83 140.31 114.92"/>
  <polyline class="cls-1" points="144.22 121.53 149.35 123.17 144.66 126.13"/>
  <polyline class="cls-1" points="140.02 133.72 142.09 138.05 134.47 138.05"/>
  <polyline class="cls-1" points="131.14 139.97 131.14 146.19 122.08 143.55"/>
  <polyline class="cls-1" points="116.34 144.94 115.17 150.92 109.08 145.86"/>
  <polyline class="cls-1" points="102.73 146.13 100.35 152.09 97.39 146.19"/>
  <polyline class="cls-1" points="89.67 145.7 84.35 150.92 84.35 144.94"/>
  <polyline class="cls-1" points="79.19 143.55 71.75 145.45 71.75 140.75"/>
  <polyline class="cls-1" points="66.29 137.74 58.45 138.05 60.58 133.72"/>
  <polyline class="cls-1" points="55.95 123.17 51.04 125.82 56.35 128.12"/>
  <polyline class="cls-1" points="59.94 116.9 56.35 111.83 64.47 112.66"/>
  <line class="cls-2" x1="83.69" y1="57.63" x2="81.35" y2="64.56"/>
  <line class="cls-2" x1="86.78" y1="57.63" x2="84.7" y2="64.56"/>
  <path class="cls-2" d="m97.81,120.1s3.04-4.56,5.7,0c0,0,3.8-1.32,3.99,2.48,0,0,4.56,2.27,0,4.75,0,0,.13,3.61-3.83,2.47,0,0-2.82,4.63-5.86.22,0,0-4.75,1.87-4.37-2.12,0,0-4.42-2.84-.02-5.32,0,0,.21-4.57,4.39-2.48Z"/>
  <path class="cls-1" d="m98.61,87.35s2.05-3.08,3.85,0c0,0,2.57-.89,2.7,1.67,0,0,3.08,1.54,0,3.21,0,0,.09,2.44-2.59,1.67,0,0-1.9,3.13-3.96.15,0,0-3.21,1.26-2.95-1.43,0,0-2.98-1.92-.01-3.59,0,0,.14-3.09,2.97-1.67Z"/>
  <line class="cls-2" x1="119.27" y1="57.63" x2="115.29" y2="62.94"/>
  <line class="cls-2" x1="124" y1="57.43" x2="119.27" y2="63.13"/>
  <polyline class="cls-2" points="60.76 80.33 60.76 75.65 66.63 75.21"/>
  <path class="cls-2" d="m104.3,159.48c.65.55,2.92,2.34,6.32,2.42.82.02,3.34-.03,5.83-1.71,1.35-.92,2.2-1.98,2.67-2.68,7.46,5.98,18.58,14.33,26.03,20.3"/>
  <path class="cls-2" d="m132,167.21c-1.42,1.71-2.09,3.34-2.42,4.38-.52,1.61-.98,3.04-.48,4.62.59,1.87,2.43,3.64,2.43,3.64h0c-.22.54-.6,1.33-1.21,2.19-2.51,3.52-6.59,4.77-12.13,5.85-5.22,1.02-10.13,1.58-16.75,1.97-7.21.43-10.9.63-15.06.03-5.84-.85-9.72-2.47-11.66-3.38-3.95-1.86-6.39-3-8.27-5.81-2.11-3.16-3-7.69-1.48-11.66.94-2.43,2.47-3.85,4.36-5.59,3.41-3.14,7.01-4.87,9.7-5.85"/>
  <line class="cls-2" x1="113.53" y1="191.45" x2="115.61" y2="184.51"/>
  <path class="cls-1" d="m101.66,161.74s-2.05,3.09-3.85,0c0,0-2.57.89-2.7-1.67,0,0-3.08-1.53,0-3.21,0,0-.09-2.44,2.59-1.67,0,0,1.9-3.13,3.96-.16,0,0,3.21-1.27,2.96,1.43,0,0,2.99,1.91.02,3.59,0,0-.14,3.09-2.97,1.68Z"/>
  <line class="cls-2" x1="81.05" y1="191.5" x2="85.02" y2="186.18"/>
  <line class="cls-2" x1="76.32" y1="191.7" x2="81.04" y2="186"/>
  <path class="cls-2" d="m155.97,117.68c.54-.67,2.27-2.98,2.26-6.38,0-.82-.11-3.34-1.85-5.78-.95-1.33-2.03-2.15-2.74-2.6,5.79-7.6,13.86-18.93,19.65-26.53"/>
  <path class="cls-2" d="m163.01,89.79c1.74,1.37,3.39,2,4.43,2.31,1.62.48,3.06.9,4.63.36,1.86-.64,3.58-2.52,3.58-2.52h0c.54.21,1.35.57,2.22,1.16,3.58,2.42,4.93,6.47,6.15,11.98,1.15,5.19,1.83,10.09,2.39,16.7.61,7.2.9,10.88.4,15.05-.7,5.86-2.23,9.78-3.09,11.74-1.76,3.99-2.84,6.46-5.61,8.41-3.11,2.19-7.61,3.19-11.61,1.77-2.46-.87-3.91-2.37-5.7-4.22-3.23-3.33-5.04-6.88-6.08-9.56"/>
  <line class="cls-2" x1="187.7" y1="107.65" x2="180.71" y2="105.75"/>
  <path class="cls-1" d="m158.3,120.26s3.14,1.97.1,3.85c0,0,.96,2.54-1.6,2.74,0,0-1.45,3.12-3.21.09,0,0-2.44.15-1.74-2.54,0,0-3.18-1.82-.26-3.95,0,0-1.35-3.18,1.36-2.99,0,0,1.84-3.03,3.59-.11,0,0,3.09.06,1.75,2.92Z"/>
  <line class="cls-2" x1="188.56" y1="140.13" x2="183.15" y2="136.29"/>
  <line class="cls-2" x1="188.88" y1="144.85" x2="183.06" y2="140.27"/>
  <path class="cls-2" d="m43.47,129.1c-.56.65-2.38,2.9-2.49,6.29-.03.82-.01,3.34,1.64,5.85.9,1.36,1.95,2.22,2.64,2.7-6.06,7.39-14.54,18.41-20.6,25.8"/>
  <path class="cls-2" d="m35.42,156.71c-1.69-1.44-3.32-2.13-4.35-2.47-1.6-.54-3.03-1.01-4.61-.53-1.88.57-3.67,2.39-3.67,2.39h0c-.54-.23-1.32-.62-2.17-1.24-3.49-2.55-4.69-6.64-5.71-12.2-.96-5.23-1.46-10.15-1.78-16.78-.34-7.22-.5-10.91.15-15.06.91-5.83,2.58-9.69,3.52-11.62,1.9-3.93,3.08-6.36,5.91-8.2,3.19-2.07,7.72-2.91,11.67-1.34,2.42.96,3.82,2.51,5.54,4.43,3.1,3.44,4.79,7.06,5.73,9.77"/>
  <line class="cls-2" x1="11.4" y1="137.96" x2="18.31" y2="140.12"/>
  <path class="cls-1" d="m41.24,126.43s-3.06-2.09.04-3.85c0,0-.86-2.58,1.7-2.68,0,0,1.57-3.07,3.21.03,0,0,2.44-.06,1.64,2.61,0,0,3.11,1.94.11,3.96,0,0,1.23,3.22-1.46,2.94,0,0-1.95,2.96-3.59-.02,0,0-3.09-.17-1.64-2.98Z"/>
  <line class="cls-2" x1="11.72" y1="105.48" x2="16.99" y2="109.51"/>
  <line class="cls-2" x1="11.58" y1="100.75" x2="17.23" y2="105.53"/>
  <line class="cls-2" x1="162.55" y1="176.75" x2="170.28" y2="177.82"/>
  <path class="cls-3" d="m157.24,120.79s2.12,1.33.07,2.6c0,0,.65,1.72-1.08,1.85,0,0-.98,2.11-2.17.06,0,0-1.65.1-1.17-1.72,0,0-2.15-1.23-.17-2.67,0,0-.91-2.15.92-2.02,0,0,1.24-2.05,2.42-.07,0,0,2.09.04,1.18,1.97Z"/>
  <path class="cls-3" d="m99.1,88.43s1.39-2.08,2.6,0c0,0,1.74-.6,1.82,1.13,0,0,2.08,1.04,0,2.17,0,0,.06,1.65-1.75,1.13,0,0-1.29,2.11-2.67.1,0,0-2.17.85-2-.97,0,0-2.02-1.3,0-2.43,0,0,.1-2.09,2.01-1.13Z"/>
  <path class="cls-3" d="m42.32,125.95s-2.07-1.41.03-2.6c0,0-.58-1.74,1.15-1.81,0,0,1.06-2.07,2.17.02,0,0,1.65-.04,1.11,1.76,0,0,2.1,1.31.08,2.68,0,0,.83,2.18-.99,1.99,0,0-1.32,2-2.43-.01,0,0-2.08-.12-1.11-2.02Z"/>
  <path class="cls-3" d="m101.16,160.67s-1.38,2.08-2.6,0c0,0-1.73.6-1.82-1.13,0,0-2.08-1.03,0-2.17,0,0-.06-1.65,1.75-1.13,0,0,1.28-2.11,2.67-.11,0,0,2.17-.86,2,.97,0,0,2.02,1.29.01,2.43,0,0-.09,2.09-2,1.13Z"/>
  <polyline class="cls-2" points="163.46 83.63 168.12 83.09 169.23 88.87"/>
  <polyline class="cls-2" points="140.25 168.61 139.19 173.18 133.37 172.28"/>
  <polyline class="cls-2" points="34.23 162.96 29.56 163.39 28.59 157.58"/>
  <ellipse class="cls-4" cx="99.43" cy="126.01" rx="79.93" ry="58.5"/>
</svg>