<?xml version="1.0" encoding="UTF-8"?>
<svg id="Layer_2" data-name="Layer 2" xmlns="http://www.w3.org/2000/svg" viewBox="0 0 387.7 388.78">
  <defs>
    <style>
      .cls-1, .cls-2, .cls-3, .cls-4 {
        stroke-miterlimit: 10;
      }

      .cls-1, .cls-2, .cls-4 {
        stroke: #1a083f;
      }

      .cls-2, .cls-3, .cls-4 {
        fill: none;
      }

      .cls-3 {
        stroke: #fff;
      }

      .cls-4 {
        opacity: .1;
      }
    </style>
  </defs>
  <path class="cls-2" d="m119.11,133.03c13.03-9.8,25.5-15.38,34.14-18.53,15.39-5.62,27.68-6.83,39.14-7.88,11.34-1.04,31.62-2.73,57.35,2.78,10.07,2.16,29.64,6.53,51.43,19.93,11.06,6.8,23.3,14.5,34.14,29.66,5.05,7.07,12.37,19.35,15.93,36.14,6.13,28.89-2.85,52.17-5.92,59.31-10.5,24.43-27.87,37.08-38.69,44.95-23.26,16.92-45.75,21.63-60.54,24.56-9.23,1.83-33.1,5.79-63.27.93-15.77-2.54-40.42-6.79-65.09-24.56-13.27-9.55-21.23-19.19-23.67-22.24-6.39-7.99-17.29-21.95-21.39-43.09-4.22-21.74,1.06-39.16,3.19-45.87,9.77-30.91,32.09-47.69,43.24-56.07Z"/>
  <path class="cls-2" d="m121.65,136.51c12.68-9.42,24.8-14.78,33.2-17.81,14.97-5.4,26.92-6.56,38.06-7.57,11.03-1,30.75-2.63,55.77,2.67,9.79,2.07,28.83,6.27,50.02,19.15,10.76,6.54,22.66,13.93,33.2,28.5,4.91,6.79,12.02,18.59,15.49,34.73,5.96,27.76-2.77,50.14-5.75,57-10.21,23.48-27.1,35.63-37.62,43.19-22.62,16.26-44.49,20.79-58.87,23.6-8.97,1.76-32.19,5.56-61.52.89-15.34-2.44-39.3-6.53-63.29-23.6-12.9-9.18-20.64-18.44-23.02-21.37-6.21-7.68-16.81-21.09-20.8-41.41-4.1-20.89,1.03-37.63,3.1-44.08,9.5-29.7,31.21-45.83,42.05-53.88Z"/>
  <path class="cls-2" d="m153.26,208.4c1.12-1.93,4.94-8.02,15.48-13.65,1.59-.85,7.88-4.12,21.39-6.83,8.48-1.7,18.5-3.64,31.86-2.73,6.29.43,16.31,1.69,27.76,5.92,8.77,3.24,16.26,6.12,21.39,13.65,1.57,2.3,4.89,7.19,4.1,13.2-.8,6.01-5.26,9.77-10.01,13.65-2.94,2.41-9.58,7.3-21.85,10.92-10.84,3.2-19.46,3.46-27.31,3.64-8.74.2-19.8.37-33.23-3.64-8.02-2.39-13.78-5.35-18.21-8.19-6.61-4.24-14.11-9.06-14.57-16.39-.23-3.66,1.39-6.45,3.19-9.56Z"/>
  <polyline class="cls-2" points="173.11 192.74 125.93 140.59 125.93 133.47"/>
  <line class="cls-2" x1="117.5" y1="139.63" x2="125.93" y2="140.59"/>
  <polyline class="cls-2" points="249.52 240.35 300.49 289.4 298.47 299.97"/>
  <polyline class="cls-2" points="249.75 190.97 300.72 143.17 309.88 139.97"/>
  <line class="cls-2" x1="300.72" y1="143.17" x2="302.66" y2="135.24"/>
  <polyline class="cls-2" points="176.52 240.37 130.49 293.97 120.32 297.26"/>
  <line class="cls-2" x1="130.73" y1="303.9" x2="130.49" y2="293.97"/>
  <path class="cls-2" d="m206.51,166.43c-.92-.78-4.12-3.31-8.91-3.43-1.16-.03-4.72.03-8.23,2.4-1.91,1.29-3.1,2.79-3.77,3.77-10.51-8.45-26.18-20.26-36.69-28.71"/>
  <path class="cls-2" d="m167.44,155.46c2-2.4,2.96-4.71,3.43-6.17.73-2.27,1.39-4.28.69-6.51-.83-2.65-3.43-5.14-3.43-5.14h0c.32-.76.85-1.88,1.71-3.08,3.55-4.96,9.31-6.71,17.14-8.23,7.37-1.42,14.3-2.2,23.65-2.74,10.18-.58,15.39-.86,21.25,0,8.23,1.21,13.71,3.51,16.45,4.8,5.57,2.63,9.01,4.25,11.65,8.23,2.97,4.47,4.22,10.86,2.06,16.45-1.33,3.43-3.49,5.42-6.17,7.88-4.82,4.43-9.9,6.86-13.71,8.23"/>
  <polyline class="cls-1" points="168.73 194.75 168.17 187.28 176.52 190.97"/>
  <polyline class="cls-1" points="190.12 187.92 190.12 179.96 196.01 186.79"/>
  <polyline class="cls-1" points="208.52 184.96 212.7 178.3 216.12 184.96"/>
  <polyline class="cls-1" points="228.63 185.87 235.28 179.96 235.28 186.99"/>
  <polyline class="cls-1" points="245.58 189.68 256.16 184.96 254.07 192.74"/>
  <polyline class="cls-1" points="264.13 197.78 273.26 197.78 269.1 202.14"/>
  <polyline class="cls-1" points="275.23 211.66 281.85 213.78 275.24 217.96"/>
  <polyline class="cls-1" points="268.7 228.68 271.61 234.79 260.86 234.79"/>
  <polyline class="cls-1" points="256.16 237.5 256.16 246.27 243.38 242.54"/>
  <polyline class="cls-1" points="235.28 244.5 233.63 252.95 225.03 245.81"/>
  <polyline class="cls-1" points="216.07 246.18 212.7 254.6 208.52 246.27"/>
  <polyline class="cls-1" points="197.63 245.59 190.12 252.95 190.12 244.5"/>
  <polyline class="cls-1" points="182.84 242.54 172.34 245.24 172.34 238.59"/>
  <polyline class="cls-1" points="164.63 234.35 153.58 234.79 156.58 228.68"/>
  <polyline class="cls-1" points="150.05 213.78 143.12 217.52 150.62 220.78"/>
  <polyline class="cls-1" points="155.68 204.94 150.62 197.78 162.07 198.95"/>
  <line class="cls-2" x1="189.2" y1="121.3" x2="185.9" y2="131.08"/>
  <line class="cls-2" x1="193.56" y1="121.3" x2="190.62" y2="131.08"/>
  <path class="cls-2" d="m209.13,209.46s4.29-6.44,8.05,0c0,0,5.37-1.86,5.63,3.5,0,0,6.44,3.21,0,6.7,0,0,.18,5.1-5.41,3.49,0,0-3.98,6.53-8.27.31,0,0-6.71,2.64-6.17-3,0,0-6.23-4.01-.03-7.5,0,0,.3-6.45,6.2-3.5Z"/>
  <path class="cls-1" d="m210.25,163.24s2.9-4.35,5.44,0c0,0,3.62-1.26,3.81,2.36,0,0,4.35,2.17,0,4.52,0,0,.12,3.44-3.65,2.36,0,0-2.69,4.41-5.59.21,0,0-4.53,1.78-4.17-2.02,0,0-4.21-2.71-.02-5.07,0,0,.2-4.36,4.19-2.36Z"/>
  <line class="cls-2" x1="239.4" y1="121.3" x2="233.79" y2="128.79"/>
  <line class="cls-2" x1="246.08" y1="121.02" x2="239.4" y2="129.06"/>
  <polyline class="cls-2" points="156.84 153.33 156.84 146.72 165.13 146.1"/>
  <path class="cls-2" d="m218.28,265.03c.92.78,4.13,3.31,8.92,3.41,1.16.03,4.72-.04,8.22-2.41,1.91-1.29,3.1-2.79,3.76-3.78,10.52,8.44,26.22,20.22,36.74,28.65"/>
  <path class="cls-2" d="m257.38,275.93c-2,2.41-2.95,4.71-3.42,6.18-.73,2.27-1.38,4.29-.67,6.51.84,2.65,3.44,5.14,3.44,5.14h0c-.32.76-.85,1.88-1.71,3.09-3.54,4.97-9.3,6.73-17.12,8.25-7.36,1.44-14.3,2.23-23.64,2.78-10.18.6-15.38.89-21.25.04-8.24-1.19-13.72-3.48-16.46-4.77-5.57-2.62-9.02-4.24-11.67-8.21-2.98-4.47-4.24-10.85-2.08-16.45,1.32-3.43,3.48-5.43,6.16-7.89,4.81-4.44,9.89-6.87,13.7-8.25"/>
  <line class="cls-2" x1="231.31" y1="310.14" x2="234.24" y2="300.35"/>
  <path class="cls-1" d="m214.55,268.22s-2.89,4.35-5.44,0c0,0-3.62,1.26-3.81-2.36,0,0-4.35-2.16,0-4.52,0,0-.13-3.44,3.65-2.36,0,0,2.68-4.42,5.59-.22,0,0,4.53-1.79,4.17,2.02,0,0,4.21,2.7.03,5.07,0,0-.19,4.36-4.19,2.37Z"/>
  <line class="cls-2" x1="185.47" y1="310.22" x2="191.07" y2="302.71"/>
  <line class="cls-2" x1="178.79" y1="310.5" x2="185.45" y2="302.45"/>
  <path class="cls-2" d="m291.2,206.03c.76-.94,3.2-4.21,3.19-9,0-1.16-.16-4.71-2.62-8.16-1.34-1.87-2.87-3.03-3.87-3.67,8.17-10.73,19.56-26.71,27.73-37.44"/>
  <path class="cls-2" d="m301.13,166.68c2.46,1.94,4.79,2.83,6.26,3.26,2.28.67,4.32,1.27,6.53.51,2.62-.9,5.05-3.56,5.05-3.56h0c.77.3,1.9.8,3.13,1.63,5.06,3.42,6.96,9.13,8.68,16.91,1.62,7.33,2.58,14.24,3.37,23.57.85,10.16,1.27,15.36.56,21.24-.99,8.26-3.14,13.8-4.36,16.57-2.48,5.64-4.01,9.12-7.91,11.87-4.39,3.09-10.74,4.51-16.39,2.49-3.47-1.23-5.51-3.35-8.04-5.96-4.55-4.7-7.12-9.71-8.59-13.49"/>
  <line class="cls-2" x1="335.98" y1="191.89" x2="326.12" y2="189.21"/>
  <path class="cls-1" d="m294.49,209.69s4.43,2.78.14,5.44c0,0,1.35,3.59-2.26,3.87,0,0-2.05,4.41-4.52.12,0,0-3.44.21-2.45-3.59,0,0-4.48-2.57-.36-5.58,0,0-1.9-4.48,1.91-4.22,0,0,2.59-4.28,5.07-.16,0,0,4.36.09,2.47,4.12Z"/>
  <line class="cls-2" x1="337.19" y1="237.72" x2="329.55" y2="232.3"/>
  <line class="cls-2" x1="337.64" y1="244.38" x2="329.43" y2="237.92"/>
  <path class="cls-2" d="m132.44,222.16c-.79.91-3.35,4.09-3.52,8.88-.04,1.16-.02,4.72,2.32,8.25,1.27,1.92,2.76,3.13,3.73,3.81-8.56,10.43-20.52,25.98-29.08,36.4"/>
  <path class="cls-2" d="m121.08,261.12c-2.38-2.03-4.68-3-6.13-3.49-2.26-.76-4.27-1.43-6.5-.75-2.66.8-5.17,3.38-5.17,3.38h0c-.76-.32-1.87-.87-3.07-1.74-4.93-3.6-6.62-9.38-8.06-17.22-1.35-7.38-2.06-14.32-2.51-23.68-.48-10.18-.71-15.39.21-21.25,1.29-8.22,3.64-13.68,4.96-16.4,2.68-5.54,4.34-8.97,8.34-11.57,4.5-2.93,10.9-4.11,16.47-1.89,3.42,1.36,5.39,3.55,7.82,6.25,4.38,4.86,6.76,9.97,8.09,13.79"/>
  <line class="cls-2" x1="87.18" y1="234.66" x2="96.93" y2="237.7"/>
  <path class="cls-1" d="m129.29,218.39s-4.32-2.94.05-5.44c0,0-1.22-3.64,2.4-3.78,0,0,2.21-4.33,4.52.04,0,0,3.44-.09,2.32,3.68,0,0,4.38,2.73.16,5.59,0,0,1.74,4.55-2.07,4.15,0,0-2.75,4.18-5.07-.03,0,0-4.35-.25-2.32-4.21Z"/>
  <line class="cls-2" x1="87.63" y1="188.82" x2="95.07" y2="194.51"/>
  <line class="cls-2" x1="87.43" y1="182.14" x2="95.4" y2="188.9"/>
  <line class="cls-2" x1="300.49" y1="289.4" x2="311.39" y2="290.91"/>
  <path class="cls-3" d="m292.99,210.42s2.99,1.88.1,3.67c0,0,.91,2.43-1.53,2.61,0,0-1.39,2.98-3.06.08,0,0-2.32.14-1.66-2.43,0,0-3.03-1.74-.24-3.77,0,0-1.28-3.03,1.29-2.85,0,0,1.75-2.89,3.42-.1,0,0,2.95.06,1.67,2.79Z"/>
  <path class="cls-3" d="m210.95,164.75s1.96-2.94,3.67,0c0,0,2.45-.85,2.57,1.6,0,0,2.94,1.46,0,3.06,0,0,.08,2.33-2.47,1.59,0,0-1.82,2.98-3.77.14,0,0-3.06,1.2-2.82-1.37,0,0-2.84-1.83-.01-3.42,0,0,.14-2.94,2.83-1.6Z"/>
  <path class="cls-3" d="m130.81,217.71s-2.92-1.99.04-3.67c0,0-.82-2.46,1.62-2.56,0,0,1.49-2.92,3.06.03,0,0,2.33-.06,1.57,2.48,0,0,2.96,1.85.11,3.78,0,0,1.17,3.07-1.4,2.8,0,0-1.86,2.83-3.42-.02,0,0-2.94-.17-1.57-2.85Z"/>
  <path class="cls-3" d="m213.85,266.71s-1.95,2.94-3.67,0c0,0-2.45.85-2.57-1.59,0,0-2.94-1.46,0-3.06,0,0-.09-2.33,2.47-1.6,0,0,1.81-2.98,3.77-.15,0,0,3.06-1.21,2.82,1.36,0,0,2.85,1.82.02,3.42,0,0-.13,2.94-2.83,1.6Z"/>
  <polyline class="cls-2" points="301.77 157.98 308.34 157.23 309.91 165.39"/>
  <polyline class="cls-2" points="269.02 277.91 267.52 284.36 259.31 283.09"/>
  <polyline class="cls-2" points="119.39 269.95 112.81 270.55 111.44 262.35"/>
  <ellipse class="cls-4" cx="211.4" cy="217.8" rx="112.79" ry="82.56"/>
</svg>