<?xml version="1.0" encoding="UTF-8"?>
<svg xmlns="http://www.w3.org/2000/svg" viewBox="0 0 973.26 652.84">
  <defs>
    <style>
      .cls-1 {
        fill: none;
        stroke: #1a083f;
        stroke-miterlimit: 10;
      }
    </style>
  </defs>
  <g id="Layer_2" data-name="Layer 2">
    <ellipse class="cls-1" cx="693.42" cy="192.29" rx="119.46" ry="8.75"/>
    <path class="cls-1" d="m573.95,192.29l-7.2,286.03s5.14,11.32,20.58,14.4v43.21s9.26,5.14,23.66,9.26,43,11.32,80.15,10.29,87.56-7.2,90.65-12.35l3.09-5.14v-43.21s24.12-5.14,28.01-14.4,0-288.09,0-288.09"/>
    <path class="cls-1" d="m587.33,492.72s74.08,27.78,197.55,2.06"/>
  </g>
  <g id="Layer_3" data-name="Layer 3">
    <path class="cls-1" d="m697.55,418.78s-3.31-65.5,0-89.24c3.12-22.36-2.6-59.91-3.57-62.51-1.27-3.39-6.06-52.41-29.17-73.6-21.2-19.43-16.47-18.88-24.96-23.11-.77-.38-1.64-.8-2.65-1.28-12.2-5.78-26.12-23.75-26.28-28.95s-7.8-7.64-7.8-7.64c0,0-2.93.98-2.93,2.44s-3.74,22.43-7.8,27.96c-4.06,5.53,8.29,3.9,8.29,3.9,0,0,.85.05,2.14.11,2.63.11,7.11.22,10.05-.11,4.39-.49,7.8-1.95,10.89-1.3s4.88,2.6,6.5,3.09,5.53,1.79,5.53,1.79c0,0-9.59,2.28-16.9.81s-23.41-5.36-23.73-2.28-1.63,5.36.81,8.13,8.78,3.9,11.87,3.09,6.34-3.09,9.92-3.09,14.3-3.09,17.07-4.71,5.04-5.36,5.04-5.36c0,0,0-15.77.33-17.88s-1.63-19.18-.81-21.13-.16-5.53,1.14-9.59,1.46-5.36.16-6.66-5.69.98-5.69.98c0,0-15.6,14.3-26.49,10.73s-3.9,4.55-3.9,4.55c0,0,12.19,19.34,16.25,21.46s8.78,12.35,11.38,14.14,4.55,4.23,4.55,4.23c0,0,2.76,2.93,1.46-5.53s-11.54-40.15-20.64-43.07-20.97,19.34-25.03,27.14c-4.06,7.8,5.04,11.54,5.04,11.54,0,0,23.57,12.03,29.26,12.19s12.03,1.63,12.03,1.63"/>
    <path class="cls-1" d="m693.19,418.78s-11.58-117.16,1.85-167.65-9.73-23.86,40.76-136.65,46.79,18.3,46.79,18.3c0,0-18.07.93-41.23-14.36s14.82-64.39,18.99-60.68,0,9.26,0,9.26c0,0,3.24,19.46,1.39,23.16s-17.89,22.54-20.84,21.08,5.56.69,18.99-3.48,20.84-8.34,27.79-6.02,0,11.12,0,11.12c0,0-3.71,5.1-7.87,5.1s-23.16-3.24-23.62-1.39-8.8,0-8.8,0c0,0-2.78,8.34,2.32,10.19s18.53,13.9,20.84,17.6,6.95,2.32,6.95,2.32c0,0,2.78.93,0-8.8s-2.32-13.9-4.63-16.21-25.48-5.1-25.48-5.1"/>
    <path class="cls-1" d="m708.95,179.32s27.94-24.08,35.46-22.43,9.85,16.15,9.99,2.05-2.87-8.76-2.87-8.76c0,0-5.47,3.97-5.34,4.93s-.82-1.98.68-5.92,3.83-3.25,3.83-3.25c0,0,1.92,3.69,1.09,7.8s-7.25,1.64-7.25,1.64c0,0,.27,5.69,1.23,7.23s2.33,1.12,2.33,1.12c0,0,8.35-3.56,8.21-5.34s-11.9-1.51-11.9-1.51"/>
    <path class="cls-1" d="m700.34,215.37s-1.47-57.2-2.93-59.84-29.93-76.58-32.57-79.22c-.45-.45-1.18-1.64-2.06-3.34-4.29-8.23-12.31-28.43-10.85-34.51,1.76-7.34-5.11-23.47-6.37-23.18s.5-6.45,2.26-6.45,4.4-2.64,11.44-1.76,4.99,2.05,10.86,2.93,9.98-4.17,11.74-3.11,4.99-1.87,9.1,1.06,3.23,9.39,3.23,9.39c0,0-6.05,12.32-6.11,14.38s-5.34,18.48-8.27,22.01-10.56,17.02-12.62,18.19,8.8-2.35,12.03-5.28,18.24-16.72,19.83-20.54,11.86-9.39,12.15-10.27,3.23-4.11,3.23-7.92-4.11-3.23-4.11-3.23c0,0-7.34,2.05-8.22,1.17s-9.1-.88-8.22-2.05-8.09-3.81-8.09-3.81c0,0-5.45,2.05-6.02,1.76s-4.38-.29-4.38-.29c0,0-6.16,1.47-5.28,6.16s-2.93,39.1-5.57,41.37-2.93,7.63-2.93,7.63c0,0-9.39,5.87-11.44,5.87s-13.79,1.17-15.26,1.47-6.16,1.76-8.8,1.17-7.63-4.69-14.38-4.11-9.68-7.92-9.68-7.92c0,0,4.11-2.35,3.81-4.11s-.59-4.99,3.81-4.11,10.27-.29,18.48,2.64,10.27,1.76,13.5,4.11,16.58,2.64,16.58,2.64c0,0-9.36-1.76-12.68-6.45-3.31-4.69-11.53-2.05-18.28-10.56-6.75-8.51-4.69-8.22-7.92-11.44s-8.51-7.34-4.99-13.2c3.52-5.87,1.76,4.69,17.02-12.91,15.26-17.6,29.05-9.1,42.54-17.9,13.5-8.8,5.28,30.51,5.28,30.51,0,0-4.11,20.54-7.04,24.06s-3.09,18.72-8.51,18.31-11.73-21.83-14.08-22.42-10.86-24.65-11.44-25.53-7.04-17.02-11.74-9.1-6.35,18.46-9.68,19.36-9.68,9.1-8.8,9.68-5.57,4.11-3.52,8.51,12.16,6.75,12.91,8.51,19.66,7.63,20.83,9.39,22.89,4.4,26.7,3.23"/>
    <path class="cls-1" d="m693.57,145.58s5.87-11.74,6.16-21.71,8.8-15.55,8.8-15.55c0,0,4.11-6.45,2.05-7.92s-2.05,6.16-9.68,7.34-11.01,14.11-11.02,15.16c-.01,1.2-2.25,8.04-2.25,8.04"/>
    <path class="cls-1" d="m691.26,133.41s2.81-4.23,3.69-6.58,1.47-11.74,3.52-12.62"/>
    <path class="cls-1" d="m688.68,311.33s-5.49-11.15-8.5-11.44-15.33-18.52-12.69-34.64c0,0,3.81.9,6.45,6.77s3.67,14.08,6.24,14.96,9.21,5.59,9.13,7.05"/>
    <path class="cls-1" d="m688.55,301.35s-4.63-5.28-6.09-5.57-7.63-4.99-8.22-10.27"/>
  </g>
</svg>