<?xml version="1.0" encoding="UTF-8"?>
<svg id="Layer_3" data-name="Layer 3" xmlns="http://www.w3.org/2000/svg" viewBox="0 0 200 250">
  <defs>
    <style>
      .cls-1 {
        fill: none;
        stroke: #1a083f;
        stroke-miterlimit: 10;
      }
    </style>
  </defs>
  <ellipse class="cls-1" cx="101.23" cy="86.38" rx="53.81" ry="3.94"/>
  <path class="cls-1" d="m47.43,86.38l-3.24,128.82s2.32,5.1,9.27,6.49v19.46s4.17,2.32,10.66,4.17c6.49,1.85,19.37,5.1,36.1,4.63,16.73-.46,39.44-3.24,40.83-5.56l1.39-2.32v-19.46s10.86-2.32,12.61-6.49,0-129.75,0-129.75"/>
  <path class="cls-1" d="m53.45,221.69s33.36,12.51,88.97.93"/>
  <path class="cls-1" d="m103.09,188.39s-1.49-29.5,0-40.19c1.4-10.07-1.17-26.98-1.61-28.15-.57-1.53-2.73-23.61-13.14-33.15-9.55-8.75-7.42-8.5-11.24-10.41-.35-.17-.74-.36-1.19-.58-5.49-2.6-11.76-10.7-11.84-13.04s-3.51-3.44-3.51-3.44c0,0-1.32.44-1.32,1.1s-1.68,10.1-3.51,12.59,3.73,1.76,3.73,1.76c0,0,.38.02.96.05,1.19.05,3.2.1,4.53-.05,1.98-.22,3.51-.88,4.9-.59s2.2,1.17,2.93,1.39,2.49.81,2.49.81c0,0-4.32,1.02-7.61.37s-10.54-2.42-10.69-1.02-.73,2.42.37,3.66,3.95,1.76,5.34,1.39,2.86-1.39,4.47-1.39,6.44-1.39,7.69-2.12,2.27-2.42,2.27-2.42c0,0,0-7.1.15-8.05s-.73-8.64-.37-9.52-.07-2.49.51-4.32.66-2.42.07-3-2.56.44-2.56.44c0,0-7.03,6.44-11.93,4.83s-1.76,2.05-1.76,2.05c0,0,5.49,8.71,7.32,9.66,1.83.95,3.95,5.56,5.12,6.37s2.05,1.9,2.05,1.9c0,0,1.24,1.32.66-2.49-.59-3.81-5.2-18.08-9.3-19.4s-9.44,8.71-11.27,12.23c-1.83,3.51,2.27,5.2,2.27,5.2,0,0,10.61,5.42,13.18,5.49s5.42.73,5.42.73"/>
  <path class="cls-1" d="m101.13,188.39s-5.22-52.77.83-75.51c6.05-22.74-4.38-10.74,18.36-61.55,22.74-50.8,21.07,8.24,21.07,8.24,0,0-8.14.42-18.57-6.47-10.43-6.88,6.68-29,8.55-27.33s0,4.17,0,4.17c0,0,1.46,8.76.63,10.43s-8.06,10.15-9.39,9.49,2.5.31,8.55-1.57c6.05-1.88,9.39-3.76,12.52-2.71s0,5.01,0,5.01c0,0-1.67,2.29-3.55,2.29s-10.43-1.46-10.64-.63-3.96,0-3.96,0c0,0-1.25,3.76,1.04,4.59s8.35,6.26,9.39,7.93,3.13,1.04,3.13,1.04c0,0,1.25.42,0-3.96s-1.04-6.26-2.09-7.3-11.47-2.29-11.47-2.29"/>
  <path class="cls-1" d="m108.23,80.54s12.58-10.84,15.97-10.1,4.44,7.27,4.5.92c.06-6.35-1.29-3.94-1.29-3.94,0,0-2.47,1.79-2.4,2.22s-.37-.89.31-2.67,1.73-1.46,1.73-1.46c0,0,.86,1.66.49,3.51s-3.27.74-3.27.74c0,0,.12,2.56.55,3.25s1.05.5,1.05.5c0,0,3.76-1.6,3.7-2.4s-5.36-.68-5.36-.68"/>
  <path class="cls-1" d="m104.35,96.77s-.66-25.76-1.32-26.95-13.48-34.49-14.67-35.68c-.2-.2-.53-.74-.93-1.5-1.93-3.71-5.54-12.8-4.89-15.54.79-3.3-2.3-10.57-2.87-10.44s.23-2.91,1.02-2.91,1.98-1.19,5.15-.79,2.25.93,4.89,1.32,4.49-1.88,5.29-1.4,2.25-.84,4.1.48,1.45,4.23,1.45,4.23c0,0-2.72,5.55-2.75,6.48s-2.4,8.33-3.73,9.91c-1.32,1.59-4.76,7.66-5.68,8.19s3.96-1.06,5.42-2.38,8.21-7.53,8.93-9.25,5.34-4.23,5.47-4.63,1.45-1.85,1.45-3.57-1.85-1.45-1.85-1.45c0,0-3.3.93-3.7.53s-4.1-.4-3.7-.93-3.64-1.72-3.64-1.72c0,0-2.46.93-2.71.79s-1.97-.13-1.97-.13c0,0-2.78.66-2.38,2.78s-1.32,17.61-2.51,18.63-1.32,3.44-1.32,3.44c0,0-4.23,2.64-5.15,2.64s-6.21.53-6.87.66-2.78.79-3.96.53-3.44-2.11-6.48-1.85-4.36-3.57-4.36-3.57c0,0,1.85-1.06,1.72-1.85s-.26-2.25,1.72-1.85,4.63-.13,8.33,1.19,4.63.79,6.08,1.85,7.47,1.19,7.47,1.19c0,0-4.22-.79-5.71-2.91-1.49-2.11-5.19-.93-8.23-4.76s-2.11-3.7-3.57-5.15-3.83-3.3-2.25-5.95c1.59-2.64.79,2.11,7.66-5.81s13.08-4.1,19.16-8.06c6.08-3.96,2.38,13.74,2.38,13.74,0,0-1.85,9.25-3.17,10.84-1.32,1.59-1.39,8.43-3.83,8.25s-5.28-9.83-6.34-10.1-4.89-11.1-5.15-11.5-3.17-7.66-5.29-4.1c-2.11,3.57-2.86,8.31-4.36,8.72s-4.36,4.1-3.96,4.36-2.51,1.85-1.59,3.83,5.48,3.04,5.81,3.83,8.85,3.44,9.38,4.23,10.31,1.98,12.03,1.45"/>
  <path class="cls-1" d="m101.3,65.34s2.64-5.29,2.78-9.78,3.96-7,3.96-7c0,0,1.85-2.91.93-3.57s-.93,2.78-4.36,3.3-4.96,6.35-4.96,6.83c0,.54-1.02,3.62-1.02,3.62"/>
  <path class="cls-1" d="m100.26,59.86s1.26-1.91,1.66-2.96.66-5.29,1.59-5.68"/>
  <path class="cls-1" d="m99.1,139.99s-2.47-5.02-3.83-5.15-6.9-8.34-5.72-15.6c0,0,1.72.4,2.91,3.05s1.65,6.34,2.81,6.74,4.15,2.52,4.11,3.17"/>
  <path class="cls-1" d="m99.04,135.5s-2.08-2.38-2.74-2.51-3.44-2.25-3.7-4.63"/>
</svg>